<svg width="18" height="18" viewBox="0 0 18 18" fill="none" xmlns="http://www.w3.org/2000/svg">
<path opacity="0.4" d="M1.5 4.83525C1.5 2.997 3.02268 1.5 4.8934 1.5H8.61423C10.4811 1.5 12 2.9925 12 4.82775V13.1648C12 15.0037 10.4773 16.5 8.60584 16.5H4.88653C3.01886 16.5 1.5 15.0075 1.5 13.1722V12.4672V4.83525Z" fill="#A8A8A8"/>
<path d="M16.3342 8.59116L14.1998 6.40941C13.9792 6.18441 13.6242 6.18441 13.4044 6.41091C13.1852 6.63741 13.186 7.00266 13.4058 7.22766L14.5753 8.42241H13.454H7.16131C6.85088 8.42241 6.59888 8.68116 6.59888 8.99991C6.59888 9.31941 6.85088 9.57741 7.16131 9.57741H14.5753L13.4058 10.7722C13.186 10.9972 13.1852 11.3624 13.4044 11.5889C13.5147 11.7022 13.6586 11.7592 13.8032 11.7592C13.9464 11.7592 14.0903 11.7022 14.1998 11.5904L16.3342 9.40941C16.4401 9.30066 16.5 9.15366 16.5 8.99991C16.5 8.84691 16.4401 8.69991 16.3342 8.59116Z" fill="#A8A8A8"/>
</svg>
